<svg  width="896" height="469" viewBox="0 0 896 469" fill="none" xmlns="http://www.w3.org/2000/svg">
<g id="factory 1" filter="url(#filter0_d)">
<g clip-path="url(#clip0)">
<g id="trees">
<path id="tree" d="M217.701 452.706L195.827 417.992L217.711 456.488L217.723 460.443C219.284 460.425 220.828 460.365 222.358 460.264L220.573 409.452L220.597 409.059L220.557 408.984L220.387 404.182L243.258 366.136L220.363 400.587L220.295 401.604L218.947 363.213L238.609 323.849L218.793 356.467L217.871 276.894L217.867 276.63L217.864 276.89L217.415 339.628L198.627 314.526L217.432 345.032L217.519 379.394L200.086 346.207L217.529 384.445L217.577 403.552L192.254 357.344L217.597 410.218L217.701 452.706Z" fill="#E2E2E2"/>
<ellipse id="Ellipse 1" cx="30" cy="369" rx="26" ry="58" fill="#C4C4C4" fill-opacity="0.12"/>
<ellipse id="Ellipse 5" cx="844.628" cy="427.666" rx="11.5" ry="17.5" transform="rotate(-24.0234 844.628 427.666)" fill="#C4C4C4" fill-opacity="0.12"/>
<ellipse id="Ellipse 2" cx="216.5" cy="341.5" rx="35.5" ry="67.5" fill="#C4C4C4" fill-opacity="0.12"/>
<ellipse id="Ellipse 4" cx="859.5" cy="342.5" rx="32.5" ry="64.5" fill="#C4C4C4" fill-opacity="0.12"/>
<ellipse id="Ellipse 3" cx="402.5" cy="345.5" rx="35.5" ry="67.5" fill="#C4C4C4" fill-opacity="0.12"/>
<path id="Vector" d="M405.413 452.706L383.538 417.992L405.423 456.488L405.435 460.443C406.995 460.425 408.54 460.365 410.069 460.264L408.285 409.452L408.308 409.059L408.268 408.984L408.098 404.182L430.97 366.136L408.075 400.587L408.006 401.604L406.659 363.213L426.321 323.849L406.505 356.467L405.583 276.894L405.579 276.63L405.576 276.89L405.127 339.628L386.338 314.526L405.143 345.032L405.231 379.394L387.798 346.207L405.24 384.446L405.289 403.553L379.966 357.344L405.308 410.218L405.413 452.706Z" fill="#E2E2E2"/>
<path id="Vector_2" d="M29.8113 454.939L14.0159 429.872L29.8187 457.669L29.8271 460.526C30.954 460.512 32.0695 460.469 33.1736 460.396L31.8853 423.705L31.9022 423.421L31.8732 423.367L31.7505 419.9L48.266 392.427L31.7335 417.304L31.684 418.038L30.7108 390.316L44.9089 361.892L30.5999 385.445L29.9343 327.986L29.9312 327.795L29.9289 327.983L29.6048 373.286L16.0379 355.159L29.6169 377.188L29.6799 402L17.0916 378.036L29.6868 405.648L29.7216 419.445L11.436 386.078L29.736 424.258L29.8113 454.939Z" fill="#E2E2E2"/>
<path id="Vector_3" d="M861.945 452.706L840.071 417.992L861.955 456.488L861.967 460.443C863.527 460.425 865.072 460.365 866.601 460.264L864.817 409.452L864.841 409.059L864.8 408.984L864.631 404.182L887.502 366.136L864.607 400.587L864.538 401.604L863.191 363.213L882.853 323.849L863.037 356.467L862.115 276.894L862.111 276.63L862.108 276.89L861.659 339.628L842.871 314.526L861.676 345.032L861.763 379.394L844.33 346.207L861.772 384.445L861.821 403.552L836.498 357.344L861.841 410.218L861.945 452.706Z" fill="#E2E2E2"/>
</g>
<g id="car">
<path id="Vector_4" d="M181.313 387.289H185.41V358.2H181.313V387.289Z" fill="#3F3D56"/>
<path id="Vector_5" d="M181.304 357.831L182.845 361.627L334.454 300.092L332.913 296.295L181.304 357.831Z" fill="#3F3D56"/>
<path id="Vector_6" d="M105.519 430.717H141.163V416.787H105.519V430.717Z" fill="#3F3D56"/>
<path id="Vector_7" d="M108.797 444.646H284.557V429.078H108.797V444.646Z" fill="#3F3D56"/>
<path id="Vector_8" d="M137.68 436.862H179.879V383.806H148.332L137.68 410.565V436.862Z" fill="#E2E2E2"/>
<path id="Vector_9" d="M155.297 405.11H173.324V387.084H155.297V405.11Z" fill="white"/>
<path id="Vector_10" d="M141.777 405.315H153.249V387.289H148.332L141.777 405.315Z" fill="white"/>
<path id="Vector_11" d="M168.408 423.137H172.505V415.353H168.408V423.137Z" fill="#3F3D56"/>
<path id="Vector_12" d="M149.766 406.544H149.561C148.529 406.544 147.539 406.134 146.809 405.404C146.079 404.674 145.669 403.685 145.669 402.652C145.669 401.62 146.079 400.63 146.809 399.9C147.539 399.17 148.529 398.76 149.561 398.76H149.766V406.544V406.544Z" fill="#3F3D56"/>
<path id="Vector_13" d="M302.174 436.862H301.969C300.937 436.862 299.947 436.452 299.217 435.722C298.487 434.992 298.077 434.002 298.077 432.97V432.97C298.077 431.938 298.487 430.948 299.217 430.218C299.947 429.488 300.937 429.078 301.969 429.078H302.174V436.862V436.862Z" fill="#3F3D56"/>
<path id="Vector_14" d="M121.292 429.019C118.246 429.058 115.247 429.783 112.519 431.141C109.791 432.499 107.405 434.455 105.537 436.862H97.5299L105.314 415.178L141.572 408.027L140.548 436.862H137.048C135.18 434.454 132.794 432.499 130.066 431.141C127.338 429.783 124.339 429.058 121.292 429.019V429.019Z" fill="#E2E2E2"/>
<path id="Vector_15" d="M183.361 364.755C186.529 364.755 189.097 362.187 189.097 359.02C189.097 355.852 186.529 353.284 183.361 353.284C180.194 353.284 177.626 355.852 177.626 359.02C177.626 362.187 180.194 364.755 183.361 364.755Z" fill="#3F3D56"/>
<path id="Vector_16" d="M105.39 415.494L105.581 415.567C106.547 415.932 107.328 416.666 107.752 417.607C108.177 418.548 108.21 419.619 107.845 420.584C107.48 421.55 106.746 422.331 105.805 422.755C104.864 423.18 103.793 423.213 102.827 422.848L102.636 422.775L105.39 415.494V415.494Z" fill="#3F3D56"/>
<path id="Vector_17" d="M178.65 438.501H187.254V376.432H178.65V438.501Z" fill="#3F3D56"/>
<path id="Vector_18" d="M147.308 407.773H151.405V406.135H147.308V407.773Z" fill="#3F3D56"/>
</g>
<g id="wheels">
<path id="Vector_19" d="M120.883 459.805C130.725 459.805 138.704 451.826 138.704 441.983C138.704 432.14 130.725 424.161 120.883 424.161C111.04 424.161 103.061 432.14 103.061 441.983C103.061 451.826 111.04 459.805 120.883 459.805Z" fill="#3F3D56"/>
<path id="Vector_20" d="M120.883 451.363C126.063 451.363 130.263 447.164 130.263 441.983C130.263 436.803 126.063 432.603 120.883 432.603C115.702 432.603 111.503 436.803 111.503 441.983C111.503 447.164 115.702 451.363 120.883 451.363Z" fill="#E2E2E2"/>
<path id="Vector_21" d="M281.894 459.6C290.492 459.6 297.462 452.63 297.462 444.032C297.462 435.433 290.492 428.463 281.894 428.463C273.295 428.463 266.325 435.433 266.325 444.032C266.325 452.63 273.295 459.6 281.894 459.6Z" fill="#3F3D56"/>
<path id="Vector_22" d="M281.894 452.226C286.419 452.226 290.088 448.557 290.088 444.032C290.088 439.506 286.419 435.838 281.894 435.838C277.368 435.838 273.7 439.506 273.7 444.032C273.7 448.557 277.368 452.226 281.894 452.226Z" fill="#E2E2E2"/>
</g>
<g id="moving_part_car">
<path id="Vector_23" d="M268.714 400.295H386.714V395.295H268.714V400.295Z" fill="#1F7099"/>
<path id="Vector_24" d="M262.714 395.295H380.714V390.295H262.714V395.295Z" fill="#1F7099"/>
<path id="Vector_25" d="M269.714 390.295H387.714V385.295H269.714V390.295Z" fill="#1F7099"/>
<path id="Vector_26" d="M281.714 385.295H399.714V380.295H281.714V385.295Z" fill="#1F7099"/>
<path id="Vector_27" d="M328.394 400.265C328.355 400.222 328.326 400.172 328.308 400.117C328.29 400.062 328.284 400.004 328.29 399.946L333.94 346.514C333.951 346.414 333.998 346.321 334.073 346.253C334.148 346.186 334.245 346.148 334.346 346.147H334.348C334.448 346.147 334.546 346.185 334.621 346.251C334.696 346.318 334.743 346.411 334.755 346.511L340.866 399.832C340.873 399.889 340.867 399.947 340.85 400.001C340.833 400.056 340.804 400.107 340.766 400.15C340.728 400.193 340.681 400.227 340.629 400.251C340.577 400.275 340.52 400.288 340.463 400.288L328.701 400.399H328.698C328.64 400.399 328.584 400.387 328.532 400.364C328.479 400.341 328.433 400.307 328.394 400.265V400.265ZM334.364 350.298L329.153 399.575L340 399.473L334.364 350.298Z" fill="#3F3D56"/>
<path id="Vector_28" d="M332.491 356.152H336.588V296.336H332.491V356.152Z" fill="#3F3D56"/>
</g>
<g id="pipes_in_car">
<path id="Vector_29" d="M309.214 426.795H192.214V422.795H309.214V426.795Z" fill="#1F7099" stroke="black"/>
<path id="Vector_30" d="M198.714 422.295H316.714V417.295H198.714V422.295Z" fill="#1F7099"/>
<path id="Vector_31" d="M193.714 418.295H311.714V413.295H193.714V418.295Z" fill="#1F7099"/>
<path id="Vector_32" d="M200.714 413.295H318.714V408.295H200.714V413.295Z" fill="#1F7099"/>
<path id="Vector_33" d="M178.65 430.921H302.378V427.234H178.65V430.921Z" fill="#3F3D56"/>
</g>
<path id="cloud3" d="M386.337 122.242C390.098 122.238 393.733 123.592 396.574 126.056C398.818 125.443 401.171 125.34 403.461 125.754C405.356 123.003 408.082 120.93 411.239 119.839C414.396 118.747 417.82 118.694 421.009 119.687C424.199 120.68 426.988 122.666 428.968 125.357C430.948 128.047 432.016 131.3 432.016 134.641H371.019C371.767 131.133 373.696 127.987 376.484 125.731C379.272 123.474 382.75 122.243 386.337 122.242V122.242Z" fill="#E2E2E2"/>
<path id="cloud2" d="M294.572 171.59C298.127 171.586 301.564 172.867 304.249 175.196C306.371 174.617 308.596 174.519 310.76 174.91C312.552 172.31 315.129 170.35 318.114 169.318C321.099 168.286 324.335 168.236 327.351 169.174C330.366 170.113 333.003 171.991 334.875 174.535C336.747 177.078 337.756 180.154 337.756 183.312H280.09C280.797 179.995 282.62 177.022 285.256 174.888C287.892 172.755 291.18 171.591 294.572 171.59V171.59Z" fill="#E2E2E2"/>
<path id="cloud1" d="M202.824 90.1982C206.523 90.194 210.099 91.5263 212.893 93.95C215.101 93.347 217.416 93.2453 219.668 93.6523C221.533 90.9466 224.213 88.9079 227.319 87.8343C230.425 86.7606 233.792 86.7082 236.93 87.6847C240.067 88.6611 242.81 90.6153 244.758 93.2617C246.706 95.9081 247.756 99.1081 247.756 102.394H187.756C188.492 98.9433 190.39 95.8496 193.132 93.6298C195.875 91.41 199.296 90.1987 202.824 90.1982V90.1982Z" fill="#E2E2E2"/>
<g id="smog_center">
<path id="smog" d="M608.424 128.294C608.422 128.376 608.417 128.456 608.417 128.538C608.415 130.036 608.734 131.519 609.353 132.899C609.973 134.278 610.881 135.526 612.024 136.569C612.202 136.927 612.401 137.276 612.618 137.615C611.792 139.955 611.377 142.407 611.391 144.873C611.391 153.379 616.051 160.275 621.799 160.275C627.548 160.275 632.207 153.379 632.207 144.873C632.212 143.031 631.984 141.194 631.529 139.402C633.314 137.583 634.408 135.259 634.639 132.792C634.871 130.325 634.227 127.856 632.809 125.77C633.995 126.746 635.375 127.49 636.869 127.96C638.363 128.429 639.941 128.615 641.512 128.506C643.083 128.396 644.615 127.994 646.019 127.323C647.424 126.651 648.672 125.724 649.693 124.594C650.714 123.464 651.486 122.155 651.965 120.742C652.444 119.329 652.62 117.841 652.483 116.363C652.346 114.886 651.899 113.449 651.168 112.135C650.436 110.822 649.435 109.658 648.222 108.712C650.262 108.003 652.056 106.782 653.41 105.18C654.765 103.578 655.627 101.658 655.903 99.6276C656.18 97.597 655.86 95.5339 654.979 93.6624C654.098 91.7908 652.689 90.1824 650.906 89.0119C649.122 87.8413 647.032 87.1534 644.863 87.0228C642.693 86.8922 640.527 87.324 638.6 88.2712C636.672 89.2184 635.057 90.6448 633.93 92.3954C632.804 94.1461 632.208 96.1541 632.207 98.2013C632.207 98.3653 632.213 98.528 632.221 98.6902C630.587 98.2204 628.866 98.0871 627.173 98.2992C625.48 98.5114 623.855 99.0641 622.41 99.9198C620.964 100.776 619.73 101.914 618.793 103.259C617.856 104.603 617.237 106.121 616.978 107.711C615.494 106.88 613.837 106.363 612.12 106.195C610.403 106.028 608.668 106.215 607.035 106.742C605.402 107.27 603.911 108.126 602.665 109.25C601.418 110.375 600.447 111.742 599.818 113.255C599.189 114.769 598.917 116.393 599.022 118.016C599.126 119.638 599.605 121.22 600.423 122.651C601.242 124.082 602.382 125.328 603.763 126.302C605.145 127.277 606.735 127.957 608.424 128.294V128.294ZM628.738 120.604C628.91 120.604 629.08 120.598 629.25 120.592C629.357 120.923 629.479 121.247 629.617 121.564C629.334 121.228 629.03 120.907 628.707 120.603L628.738 120.604Z" fill="#E2E2E2"/>
</g>
<g id="smog_l">
<path id="smog_2" d="M523.111 63.9548C523.108 64.0808 523.101 64.2057 523.101 64.3323C523.099 66.6523 523.563 68.9489 524.467 71.0857C525.37 73.2224 526.695 75.1555 528.361 76.7698C528.621 77.3248 528.911 77.8657 529.228 78.3901C528.023 82.0145 527.418 85.8118 527.438 89.6315C527.438 102.805 534.234 113.485 542.618 113.485C551.001 113.485 557.797 102.805 557.797 89.6315C557.803 86.7778 557.471 83.9335 556.808 81.158C559.411 78.3413 561.006 74.7407 561.344 70.9203C561.682 67.0998 560.743 63.2752 558.675 60.0454C560.404 61.5568 562.417 62.7096 564.596 63.4368C566.775 64.1641 569.076 64.4513 571.367 64.2818C573.658 64.1124 575.892 63.4896 577.94 62.4497C579.989 61.4098 581.81 59.9734 583.298 58.2239C584.787 56.4745 585.913 54.4468 586.612 52.2585C587.31 50.0703 587.567 47.7651 587.368 45.4768C587.168 43.1884 586.516 40.9625 585.449 38.9282C584.382 36.8939 582.922 35.0917 581.153 33.6263C584.128 32.5286 586.745 30.6368 588.72 28.1564C590.695 25.676 591.952 22.7018 592.355 19.557C592.759 16.4122 592.293 13.2169 591.008 10.3184C589.723 7.41984 587.668 4.92882 585.067 3.11592C582.466 1.30303 579.418 0.237592 576.253 0.0353407C573.089 -0.166911 569.93 0.501761 567.119 1.96872C564.309 3.43568 561.954 5.64483 560.31 8.35619C558.667 11.0675 557.797 14.1774 557.797 17.348C557.797 17.602 557.806 17.854 557.816 18.1053C555.434 17.3777 552.924 17.1712 550.455 17.4998C547.986 17.8283 545.617 18.6843 543.508 20.0096C541.399 21.3349 539.6 23.0984 538.233 25.1805C536.867 27.2625 535.964 29.6143 535.586 32.0762C533.423 30.789 531.005 29.988 528.501 29.7289C525.997 29.4698 523.467 29.7588 521.085 30.5758C518.704 31.3928 516.529 32.7182 514.712 34.4601C512.894 36.202 511.478 38.3185 510.56 40.6628C509.643 43.0071 509.247 45.523 509.399 48.0358C509.551 50.5486 510.249 52.9981 511.443 55.2143C512.637 57.4305 514.299 59.3602 516.314 60.8696C518.329 62.3789 520.648 63.4317 523.111 63.9548V63.9548ZM552.737 52.0441C552.987 52.0441 553.236 52.0357 553.484 52.0252C553.639 52.538 553.818 53.0399 554.02 53.5312C553.606 53.0101 553.163 52.5132 552.692 52.043L552.737 52.0441Z" fill="#E2E2E2"/>
</g>
<g id="smog_r">
<path id="Vector_34" d="M729.841 63.9548C729.838 64.0808 729.832 64.2057 729.832 64.3323C729.829 66.6523 730.294 68.9489 731.197 71.0857C732.101 73.2224 733.425 75.1555 735.092 76.7698C735.352 77.3248 735.641 77.8657 735.959 78.3901C734.753 82.0145 734.149 85.8118 734.169 89.6315C734.169 102.805 740.965 113.485 749.348 113.485C757.732 113.485 764.528 102.805 764.528 89.6315C764.534 86.7778 764.202 83.9335 763.539 81.158C766.142 78.3413 767.737 74.7407 768.075 70.9203C768.412 67.0998 767.474 63.2752 765.405 60.0454C767.135 61.5569 769.148 62.7097 771.327 63.4369C773.506 64.1642 775.807 64.4515 778.098 64.282C780.389 64.1126 782.623 63.4898 784.671 62.4499C786.719 61.4099 788.541 59.9736 790.029 58.2241C791.518 56.4746 792.644 54.4469 793.343 52.2586C794.041 50.0704 794.298 47.7652 794.098 45.4768C793.899 43.1884 793.247 40.9625 792.18 38.9282C791.113 36.8939 789.653 35.0917 787.884 33.6263C790.859 32.5286 793.475 30.6368 795.45 28.1564C797.425 25.676 798.683 22.7018 799.086 19.557C799.489 16.4122 799.023 13.2169 797.738 10.3184C796.454 7.41984 794.399 4.92882 791.798 3.11592C789.197 1.30303 786.148 0.237593 782.984 0.0353408C779.82 -0.166911 776.661 0.501761 773.85 1.96872C771.039 3.43568 768.684 5.64483 767.041 8.35619C765.397 11.0675 764.528 14.1774 764.528 17.348C764.528 17.602 764.536 17.854 764.547 18.1053C762.165 17.3777 759.654 17.1712 757.185 17.4998C754.717 17.8283 752.347 18.6843 750.239 20.0096C748.13 21.3349 746.331 23.0984 744.964 25.1805C743.597 27.2625 742.694 29.6143 742.317 32.0762C740.153 30.789 737.736 29.988 735.232 29.7289C732.728 29.4698 730.197 29.7588 727.816 30.5758C725.435 31.3928 723.26 32.7182 721.443 34.4601C719.625 36.202 718.208 38.3185 717.291 40.6628C716.374 43.0071 715.977 45.523 716.13 48.0358C716.282 50.5486 716.98 52.9981 718.174 55.2143C719.368 57.4305 721.03 59.3602 723.045 60.8696C725.06 62.3789 727.379 63.4317 729.841 63.9548V63.9548ZM759.468 52.0441C759.718 52.0441 759.967 52.0357 760.214 52.0252C760.37 52.5379 760.549 53.0399 760.75 53.5312C760.337 53.0101 759.894 52.5132 759.423 52.043L759.468 52.0441Z" fill="#E2E2E2"/>
</g>
<g id="factory">
<path id="Vector_35" d="M598.999 245.186V370.091H647.573V243.451L636.297 243.853V218.296H628.118L626.771 161.692C630.071 159.542 632.394 154.434 632.394 148.47C632.397 146.758 632.198 145.052 631.8 143.386C633.362 141.696 634.319 139.536 634.522 137.244C634.725 134.951 634.161 132.656 632.92 130.719C633.958 131.625 635.166 132.317 636.473 132.754C637.78 133.19 639.161 133.362 640.536 133.261C641.91 133.159 643.251 132.786 644.48 132.162C645.709 131.538 646.802 130.676 647.695 129.626C648.588 128.576 649.264 127.36 649.683 126.047C650.102 124.734 650.256 123.351 650.136 121.977C650.017 120.604 649.625 119.269 648.985 118.048C648.345 116.828 647.469 115.746 646.407 114.867C648.192 114.208 649.762 113.073 650.947 111.585C652.132 110.097 652.887 108.312 653.129 106.426C653.371 104.539 653.091 102.622 652.32 100.882C651.549 99.1434 650.316 97.6487 648.756 96.561C647.195 95.4733 645.366 94.834 643.468 94.7126C641.569 94.5913 639.674 94.9925 637.987 95.8726C636.301 96.7528 634.888 98.0782 633.902 99.705C632.915 101.332 632.394 103.198 632.394 105.1C632.394 105.253 632.399 105.404 632.405 105.554C630.976 105.118 629.469 104.994 627.988 105.191C626.507 105.388 625.085 105.902 623.82 106.697C622.555 107.492 621.475 108.55 620.655 109.8C619.835 111.049 619.294 112.46 619.067 113.937C617.769 113.165 616.318 112.684 614.816 112.529C613.314 112.373 611.795 112.547 610.367 113.037C608.938 113.527 607.633 114.322 606.543 115.367C605.452 116.413 604.602 117.683 604.052 119.089C603.501 120.496 603.264 122.005 603.355 123.513C603.446 125.02 603.865 126.49 604.581 127.82C605.298 129.15 606.295 130.307 607.504 131.213C608.713 132.119 610.104 132.75 611.582 133.064C611.58 133.14 611.576 133.215 611.576 133.291C612.543 136.208 613.773 139.031 615.252 141.725C614.529 143.9 614.166 146.178 614.178 148.47C614.178 154.434 616.501 159.542 619.801 161.692L618.453 218.296H610.275V244.783L598.999 245.186ZM629.331 125.917L629.358 125.918C629.508 125.918 629.657 125.913 629.805 125.906C629.899 126.214 630.006 126.515 630.127 126.81C629.879 126.497 629.613 126.199 629.331 125.917V125.917Z" fill="#E2E2E2"/>
<path id="Vector_36" d="M572.254 459H719.712V288.411H572.254V459Z" fill="#3F3D56"/>
<path id="Vector_37" d="M626.105 459H665.861V424.304H626.105V459Z" fill="#E2E2E2"/>
<path id="Vector_38" d="M533.941 232.03H551.291L550.672 206.01V206L548.401 110.59C546.659 111.654 544.657 112.218 542.616 112.218C540.575 112.218 538.573 111.654 536.831 110.59L534.561 206V206.01L533.941 232.03Z" fill="#1F7099"/>
<path id="Vector_39" d="M502.141 250.82V459H583.092V247.93L564.301 248.6V206.01H520.931V250.15L502.141 250.82Z" fill="#1F7099"/>
<path id="Vector_40" d="M740.674 232.03H758.022L755.131 110.594C751.393 111.937 747.304 111.937 743.566 110.594L740.674 232.03Z" fill="#1F7099"/>
<path id="Vector_41" d="M708.871 250.82V459H789.831V247.93L783.181 248.17L771.031 248.6V206.01H727.661V250.15L708.871 250.82Z" fill="#1F7099"/>
</g>
<g id="windows">
<path id="Vector_42" d="M667.983 329H687.983V309H667.983V329Z" fill="white"/>
<path id="Vector_43" d="M635.983 329H655.983V309H635.983V329Z" fill="white"/>
<path id="Vector_44" d="M603.983 329H623.983V309H603.983V329Z" fill="white"/>
<path id="Vector_45" d="M667.983 361H687.983V341H667.983V361Z" fill="white"/>
<path id="Vector_46" d="M635.983 361H655.983V341H635.983V361Z" fill="white"/>
<path id="Vector_47" d="M603.983 361H623.983V341H603.983V361Z" fill="white"/>
<path id="Vector_48" d="M667.983 393H687.983V373H667.983V393Z" fill="white"/>
<path id="Vector_49" d="M635.983 393H655.983V373H635.983V393Z" fill="white"/>
<path id="Vector_50" d="M603.983 393H623.983V373H603.983V393Z" fill="white"/>
<path id="Vector_51" d="M532.618 321H552.618V301H532.618V321Z" fill="white"/>
<path id="Vector_52" d="M532.618 353H552.618V333H532.618V353Z" fill="white"/>
<path id="Vector_53" d="M532.618 385H552.618V365H532.618V385Z" fill="white"/>
<path id="Vector_54" d="M532.618 417H552.618V397H532.618V417Z" fill="white"/>
<path id="Vector_55" d="M739.181 321H759.181V301H739.181V321Z" fill="white"/>
<path id="Vector_56" d="M739.181 353H759.181V333H739.181V353Z" fill="white"/>
<path id="Vector_57" d="M739.181 385H759.181V365H739.181V385Z" fill="white"/>
<path id="Vector_58" d="M739.181 417H759.181V397H739.181V417Z" fill="white"/>
</g>
<path id="road" d="M892 458.295H4V460.295H892V458.295Z" fill="#E2E2E2"/>
</g>
</g>
<defs>
<filter id="filter0_d" x="0" y="0" width="896" height="468.526" filterUnits="userSpaceOnUse" color-interpolation-filters="sRGB">
<feFlood flood-opacity="0" result="BackgroundImageFix"/>
<feColorMatrix in="SourceAlpha" type="matrix" values="0 0 0 0 0 0 0 0 0 0 0 0 0 0 0 0 0 0 127 0"/>
<feOffset dy="4"/>
<feGaussianBlur stdDeviation="2"/>
<feColorMatrix type="matrix" values="0 0 0 0 0 0 0 0 0 0 0 0 0 0 0 0 0 0 0.25 0"/>
<feBlend mode="normal" in2="BackgroundImageFix" result="effect1_dropShadow"/>
<feBlend mode="normal" in="SourceGraphic" in2="effect1_dropShadow" result="shape"/>
</filter>
<clipPath id="clip0">
<rect x="4" width="888" height="460.526" fill="white"/>
</clipPath>
</defs>
</svg>
