<?xml version="1.0" encoding="utf-8"?>
<!-- Generator: Adobe Illustrator 16.0.3, SVG Export Plug-In . SVG Version: 6.00 Build 0)  -->
<!DOCTYPE svg PUBLIC "-//W3C//DTD SVG 1.1//EN" "http://www.w3.org/Graphics/SVG/1.1/DTD/svg11.dtd">
<svg version="1.1" id="Слой_1" xmlns="http://www.w3.org/2000/svg" xmlns:xlink="http://www.w3.org/1999/xlink" x="0px" y="0px"
	 width="2307.617px" height="2520.4px" viewBox="0 0 2307.617 2520.4" enable-background="new 0 0 2307.617 2520.4"
	 xml:space="preserve">
<path fill="#FFFFFF" d="M48.285,1952.983l960.91,554.41c64.059,36.957,144.137-9.242,144.137-83.168
	c-0.008-34.301-18.32-65.996-48.047-83.148l-960.91-554.409c-64.059-36.953-144.133,9.241-144.133,83.168
	C0.238,1904.14,18.555,1935.84,48.285,1952.983z M2307.617,1980.288V871.487c0-73.91-80.078-120.125-144.142-83.151
	c-29.727,17.151-48.039,48.852-48.039,83.155v1108.797c0,73.927,80.078,120.121,144.142,83.168
	C2289.305,2046.301,2307.617,2014.597,2307.617,1980.288z M1201.375,12.858l-960.91,554.403c-64.059,36.96-64.059,129.358,0,166.315
	c29.73,17.156,66.359,17.156,96.09,0l960.91-554.391c64.059-36.961,64.059-129.359,0-166.316
	C1267.734-4.286,1231.109-4.29,1201.375,12.858z"/>
<path fill="#FFFFFF" d="M1153.332,1980.715c0,73.926-80.078,120.12-144.141,83.168l-960.906-554.41
	c-29.73-17.156-48.043-48.854-48.043-83.165c0-73.918,80.074-120.117,144.137-83.16l960.906,554.414
	C1135.02,1914.71,1153.336,1946.409,1153.332,1980.715z M1731.074,1093.249v1108.797c0,73.927,80.078,120.121,144.141,83.168
	c29.727-17.159,48.039-48.862,48.039-83.168V1093.249c0-73.922-80.082-120.12-144.141-83.159
	C1749.387,1027.241,1731.074,1058.944,1731.074,1093.249z M720.922,955.34l960.906-554.392c64.063-36.961,64.063-129.363,0-166.324
	c-29.734-17.152-66.363-17.152-96.098,0L624.828,789.019c-64.059,36.961-64.059,129.359,0,166.321
	C654.559,972.491,691.191,972.491,720.922,955.34z"/>
<path fill="#FFFFFF" d="M1153.09,1536.316c0,73.926-80.078,120.121-144.141,83.168l-960.906-554.41
	C18.313,1047.919,0,1016.219,0,981.91c0-73.918,80.074-120.116,144.137-83.159l960.906,554.414
	C1134.778,1470.313,1153.094,1502.012,1153.09,1536.316z M1346.931,1313.646v1108.797c0,73.926,80.078,120.121,144.142,83.168
	c29.727-17.16,48.039-48.863,48.039-83.168V1313.646c0-73.922-80.082-120.121-144.142-83.16
	C1365.243,1247.639,1346.931,1279.343,1346.931,1313.646z M1104.578,1173.008l960.906-554.392
	c64.063-36.961,64.063-129.362,0-166.324c-29.734-17.152-66.363-17.152-96.099,0l-960.901,554.396
	c-64.059,36.961-64.059,129.359,0,166.321C1038.215,1190.159,1074.847,1190.159,1104.578,1173.008z"/>
</svg>
