<?xml version="1.0" standalone="no"?>
<!DOCTYPE svg PUBLIC "-//W3C//DTD SVG 20010904//EN"
 "http://www.w3.org/TR/2001/REC-SVG-20010904/DTD/svg10.dtd">
<svg version="1.0" xmlns="http://www.w3.org/2000/svg"
 width="2520.000000pt" height="2520.000000pt" viewBox="0 0 2520.000000 2520.000000"
 preserveAspectRatio="xMidYMid meet">
<metadata>
Created by potrace 1.11, written by Peter Selinger 2001-2013
</metadata>
<g transform="translate(0.000000,2520.000000) scale(0.100000,-0.100000)"
fill="#000000" stroke="none">
<path d="M13368 25180 c-153 -32 -199 -53 -528 -243 -74 -43 -142 -82 -150
-87 -8 -6 -94 -55 -190 -110 -96 -55 -182 -104 -190 -109 -8 -5 -125 -73 -260
-150 -135 -78 -306 -176 -380 -219 -206 -120 -601 -347 -640 -369 -19 -11 -60
-35 -90 -53 -30 -18 -75 -44 -100 -58 -50 -28 -552 -318 -985 -568 -22 -13
-93 -54 -158 -91 -65 -37 -133 -76 -150 -87 -36 -21 -605 -349 -654 -377 -18
-11 -50 -29 -70 -40 -21 -12 -58 -33 -83 -47 -25 -13 -49 -28 -55 -32 -8 -6
-189 -111 -380 -220 -65 -38 -562 -324 -600 -346 -22 -13 -76 -44 -120 -69
-44 -26 -94 -54 -111 -65 -18 -10 -110 -63 -205 -118 -96 -55 -257 -148 -359
-207 -211 -123 -209 -121 -350 -202 -58 -33 -193 -111 -300 -173 -107 -63
-213 -123 -235 -135 -22 -13 -107 -62 -190 -110 -82 -48 -169 -98 -192 -111
-23 -14 -182 -105 -354 -204 -171 -99 -315 -180 -320 -180 -5 0 -9 -4 -9 -10
0 -5 -4 -10 -9 -10 -5 0 -135 -73 -288 -161 -153 -89 -303 -175 -333 -192 -30
-17 -83 -48 -118 -69 -34 -21 -64 -38 -66 -38 -2 0 -34 -18 -70 -40 -37 -22
-90 -53 -119 -69 -28 -16 -114 -65 -191 -110 -76 -44 -140 -81 -142 -81 -3 0
-23 -12 -45 -26 -23 -14 -62 -37 -87 -51 -311 -171 -494 -470 -506 -824 -12
-377 205 -728 552 -890 296 -139 615 -121 917 52 125 72 123 71 380 219 127
73 358 207 515 298 157 90 301 174 320 184 65 38 573 330 604 349 17 10 42 24
56 32 25 14 175 101 285 164 33 20 85 49 115 65 30 17 62 36 71 44 8 8 18 14
22 14 3 0 61 32 129 71 67 40 136 80 153 89 16 9 104 60 195 112 91 53 181
105 200 115 19 11 148 86 286 165 138 80 271 157 295 171 24 13 85 48 134 77
50 29 110 64 135 78 53 30 108 62 135 80 11 6 27 15 35 19 8 4 80 45 160 91
309 179 397 230 440 254 66 37 273 157 290 168 8 6 22 13 30 17 8 4 31 16 50
28 19 12 55 33 80 47 25 14 86 49 135 78 50 29 110 64 135 78 93 52 658 379
711 411 19 11 41 24 49 28 8 4 47 26 85 48 39 23 90 53 115 67 25 14 90 52
145 83 55 32 138 80 185 107 47 27 92 53 100 58 24 15 235 136 251 143 8 4 30
17 49 28 64 38 705 410 775 449 22 12 155 89 295 170 140 81 271 157 290 168
19 10 86 49 149 86 62 36 115 66 116 66 1 0 44 25 94 55 51 30 94 55 97 55 2
0 23 11 45 26 22 14 57 34 77 46 20 11 109 62 197 113 230 133 346 200 375
216 61 34 172 123 220 176 261 288 328 697 169 1050 -119 265 -371 471 -659
538 -111 25 -295 28 -402 5z"/>
<path d="M17200 22961 c-109 -23 -208 -65 -351 -147 -63 -36 -133 -76 -156
-89 -23 -13 -112 -65 -197 -114 -85 -50 -170 -99 -188 -109 -18 -11 -121 -70
-228 -132 -107 -62 -208 -120 -225 -130 -141 -80 -588 -338 -1008 -582 -170
-98 -311 -178 -313 -178 -2 0 -22 -11 -44 -25 -22 -14 -140 -83 -263 -153
-122 -71 -370 -214 -552 -319 -181 -105 -346 -200 -365 -211 -19 -11 -91 -52
-160 -92 -69 -40 -138 -80 -155 -90 -16 -9 -223 -129 -460 -265 -236 -137
-513 -296 -615 -355 -220 -126 -447 -258 -980 -565 -217 -125 -485 -280 -595
-343 -110 -63 -217 -126 -237 -139 -21 -12 -40 -23 -42 -23 -4 0 -189 -106
-226 -130 -8 -5 -51 -30 -95 -55 -44 -25 -98 -56 -120 -69 -22 -12 -114 -66
-205 -118 -91 -52 -187 -109 -215 -125 -27 -16 -57 -32 -65 -36 -8 -4 -30 -16
-49 -28 -28 -17 -469 -272 -978 -566 -51 -29 -137 -79 -190 -110 -104 -60
-123 -71 -254 -146 -486 -276 -549 -322 -669 -490 -55 -77 -113 -203 -142
-307 -32 -119 -32 -365 0 -483 155 -565 757 -865 1294 -647 56 23 123 60 395
217 48 27 320 184 372 214 25 15 102 59 171 99 69 40 145 84 170 98 25 14 140
80 255 147 116 67 316 183 445 257 129 74 296 170 370 213 74 43 205 118 290
167 85 49 162 93 170 98 8 5 208 120 445 257 236 136 437 253 446 258 9 6 32
18 50 29 19 10 162 93 319 183 157 91 389 225 515 298 127 73 372 215 545 315
173 100 333 192 355 204 22 12 101 57 175 101 74 43 225 130 335 193 181 104
397 229 860 497 294 170 610 352 655 377 25 14 99 57 165 95 99 58 409 237
555 321 38 21 182 105 323 186 49 28 96 56 105 61 9 6 53 31 97 56 44 25 170
98 280 161 110 64 216 125 235 136 19 11 91 52 160 92 69 40 141 81 160 92
361 206 412 239 510 337 190 190 282 425 274 701 -3 125 -3 125 -34 238 -87
317 -353 576 -680 663 -117 31 -320 35 -440 10z"/>
<path d="M21109 20797 c-110 -19 -189 -42 -254 -72 -76 -34 -124 -61 -582
-326 -125 -72 -271 -156 -323 -186 -52 -30 -102 -58 -110 -64 -21 -13 -749
-432 -805 -463 -25 -14 -56 -32 -68 -40 -52 -32 -222 -130 -227 -131 -3 0 -16
-8 -30 -17 -14 -8 -149 -87 -300 -173 -151 -87 -286 -165 -300 -174 -14 -9
-34 -21 -45 -27 -11 -6 -83 -47 -160 -91 -77 -44 -156 -90 -175 -100 -19 -11
-325 -188 -680 -393 -355 -205 -666 -385 -691 -399 -62 -36 -331 -190 -349
-202 -25 -15 -183 -105 -222 -128 -21 -11 -124 -71 -230 -132 -106 -61 -209
-121 -228 -131 -19 -11 -181 -105 -360 -208 -179 -103 -341 -197 -360 -207
-19 -11 -58 -34 -86 -50 -27 -17 -71 -42 -97 -56 -25 -14 -116 -67 -201 -116
-85 -50 -171 -100 -190 -111 -20 -11 -122 -70 -228 -131 -106 -61 -211 -122
-233 -134 -51 -29 -313 -180 -810 -467 -215 -124 -413 -238 -440 -253 -28 -16
-66 -38 -85 -50 -19 -12 -55 -33 -80 -47 -25 -14 -103 -58 -173 -99 -164 -95
-167 -97 -327 -189 -623 -357 -644 -371 -744 -481 -345 -380 -333 -961 29
-1324 299 -300 781 -369 1144 -164 31 18 76 43 101 57 25 14 78 44 117 68 40
24 75 44 79 44 3 0 18 8 32 19 15 10 47 29 72 43 40 22 180 103 263 152 18 10
138 79 267 154 289 166 544 313 590 340 19 12 51 29 70 40 19 11 249 143 510
294 261 151 495 286 520 300 25 14 70 40 100 58 30 18 70 41 89 52 78 44 385
221 415 238 17 11 58 34 91 53 33 18 116 66 185 107 69 40 145 84 170 98 25
14 57 33 72 43 14 11 29 19 32 19 4 0 129 71 279 158 150 87 292 170 317 184
59 32 485 279 530 307 19 11 41 24 49 28 16 7 347 198 371 213 8 5 42 24 75
43 76 42 951 547 1025 591 30 18 136 79 235 136 99 57 216 124 260 150 44 26
161 93 260 150 99 57 208 120 242 141 34 22 65 39 67 39 3 0 43 22 88 49 46
27 99 58 118 68 138 78 450 259 472 274 15 11 29 19 32 19 3 0 71 39 153 86
81 48 166 97 188 109 22 13 96 56 165 95 69 40 139 80 155 90 135 77 577 332
605 348 19 12 58 34 85 50 28 16 68 39 89 51 99 57 223 171 293 268 41 57 104
179 126 243 61 182 66 376 13 591 -3 9 -17 47 -32 85 -125 314 -410 537 -754
590 -65 10 -209 11 -261 1z"/>
<path d="M23004 17429 c-113 -22 -188 -48 -283 -100 -258 -139 -437 -385 -492
-679 -10 -51 -13 -1295 -14 -5685 0 -3091 3 -5651 8 -5690 59 -515 549 -894
1072 -831 419 50 768 391 829 811 9 61 12 1445 11 5710 -1 5388 -2 5634 -19
5715 -36 170 -109 314 -220 440 -51 57 -177 163 -223 187 -19 10 -54 28 -77
40 -54 29 -208 79 -271 88 -96 14 -230 12 -321 -6z"/>
<path d="M1936 16339 c-37 -4 -91 -13 -120 -19 -74 -17 -229 -77 -271 -106
-20 -13 -38 -24 -41 -24 -11 0 -99 -70 -158 -125 -59 -56 -196 -246 -196 -273
0 -4 -8 -26 -19 -48 -41 -86 -65 -212 -65 -349 -1 -71 3 -147 7 -167 34 -175
82 -288 178 -418 93 -126 187 -203 389 -318 19 -11 132 -76 250 -144 118 -68
323 -187 455 -263 275 -158 374 -216 534 -309 62 -36 115 -66 117 -66 3 0 21
-11 42 -23 20 -13 57 -35 82 -49 25 -14 96 -55 159 -92 62 -36 115 -66 117
-66 3 0 41 -22 85 -50 44 -27 83 -50 85 -50 2 0 80 -44 172 -98 92 -54 174
-101 182 -105 8 -4 31 -17 50 -28 43 -26 607 -352 670 -387 25 -14 73 -43 108
-64 34 -21 64 -38 67 -38 3 0 29 -16 59 -35 30 -19 57 -35 59 -35 3 0 56 -30
118 -66 63 -37 188 -109 279 -162 91 -52 179 -103 195 -112 30 -18 201 -115
265 -152 19 -11 71 -41 115 -67 44 -26 87 -50 95 -54 8 -4 31 -17 50 -28 115
-69 220 -129 225 -129 3 0 18 -9 33 -19 26 -18 445 -260 547 -316 28 -15 55
-31 60 -35 8 -6 574 -334 695 -403 37 -21 403 -232 457 -263 17 -11 76 -44
130 -75 54 -31 226 -130 383 -221 157 -90 521 -301 810 -468 289 -166 539
-310 555 -320 17 -9 91 -52 165 -95 74 -43 149 -86 165 -95 17 -9 221 -127
455 -262 459 -265 514 -295 605 -326 171 -58 374 -61 559 -7 354 103 616 391
681 752 20 112 13 306 -15 408 -64 236 -204 432 -400 561 -48 31 -996 582
-1265 734 -150 85 -679 392 -775 449 -19 11 -42 24 -50 28 -8 4 -94 52 -190
108 -96 56 -299 173 -450 260 -151 87 -327 188 -390 225 -156 91 -248 144
-290 167 -19 11 -123 71 -230 133 -107 62 -211 122 -230 133 -19 11 -150 86
-290 167 -140 81 -272 157 -292 169 -61 34 -83 47 -523 301 -231 134 -435 251
-452 262 -92 51 -116 65 -328 188 -88 51 -180 104 -205 118 -25 14 -49 28 -55
32 -8 6 -323 188 -518 299 -18 10 -120 69 -227 131 -107 62 -213 123 -235 135
-22 13 -85 49 -140 82 -55 32 -107 62 -115 66 -8 4 -32 17 -52 30 -37 21 -243
140 -283 163 -11 6 -36 20 -55 31 -19 12 -71 42 -115 67 -44 26 -87 51 -95 56
-46 27 -140 81 -170 97 -19 11 -129 75 -244 141 -114 67 -210 122 -212 122 -2
0 -37 20 -77 45 -41 25 -77 45 -80 45 -3 0 -41 22 -84 48 -43 27 -104 63 -136
81 -32 18 -187 107 -345 198 -158 91 -307 177 -332 191 -25 14 -49 28 -55 32
-34 26 -192 102 -255 123 -87 29 -120 36 -215 43 -38 3 -77 6 -85 7 -8 2 -46
0 -84 -4z"/>
<path d="M19195 15219 c-59 -9 -151 -32 -190 -48 -310 -124 -515 -349 -603
-661 l-27 -95 -2 -5660 c-1 -3808 2 -5681 8 -5725 58 -366 325 -665 694 -776
123 -36 328 -43 455 -15 405 91 693 405 755 821 9 58 9 11235 1 11315 -10 89
-13 104 -41 188 -60 185 -174 347 -327 465 -101 78 -283 162 -385 178 -21 3
-41 8 -46 11 -15 9 -235 11 -292 2z"/>
<path d="M15375 13018 c-330 -43 -622 -258 -757 -555 -39 -87 -55 -139 -73
-238 -22 -119 -22 -11298 0 -11419 55 -303 243 -551 522 -690 519 -257 1144 1
1331 550 22 64 26 81 42 174 6 35 10 2139 9 5695 0 5961 2 5679 -41 5815 -76
244 -256 455 -486 569 -173 86 -372 122 -547 99z"/>
<path d="M1865 11885 c-207 -40 -376 -128 -519 -269 -180 -179 -276 -404 -281
-660 -5 -258 92 -503 273 -690 78 -81 146 -128 332 -234 19 -10 165 -95 324
-187 159 -92 305 -176 325 -187 20 -11 41 -24 46 -28 6 -4 35 -21 65 -37 30
-17 109 -62 175 -100 66 -38 140 -81 165 -95 25 -14 113 -65 195 -113 83 -48
168 -97 190 -109 34 -19 67 -38 173 -101 10 -5 49 -28 87 -50 39 -22 82 -46
96 -55 68 -39 506 -292 519 -300 81 -48 153 -90 155 -90 1 0 42 -23 91 -51 49
-29 105 -61 124 -71 19 -11 40 -24 45 -28 6 -4 35 -21 65 -37 30 -17 122 -69
203 -117 82 -47 151 -86 154 -86 3 0 19 -10 36 -22 18 -13 34 -23 37 -23 3 0
34 -18 70 -39 36 -21 81 -48 100 -59 19 -10 125 -71 235 -135 110 -63 209
-120 220 -126 11 -6 27 -16 35 -22 8 -6 40 -25 70 -41 30 -16 201 -114 380
-218 179 -103 339 -196 355 -205 30 -17 926 -534 1105 -638 52 -30 111 -64
130 -75 19 -10 64 -36 100 -57 36 -21 83 -48 106 -61 169 -98 331 -192 344
-199 14 -9 34 -20 161 -92 24 -14 111 -65 193 -112 82 -47 150 -86 152 -86 2
0 96 -55 154 -90 12 -7 246 -143 470 -271 25 -15 74 -43 110 -64 36 -21 79
-46 95 -56 17 -10 46 -26 65 -37 19 -11 134 -77 255 -147 121 -70 240 -139
265 -153 25 -14 131 -75 235 -135 105 -61 219 -127 255 -147 36 -20 184 -106
330 -191 383 -222 491 -260 725 -254 114 3 277 34 333 64 9 6 46 24 81 41 236
115 425 348 491 604 25 97 30 138 32 227 4 333 -148 626 -429 822 -29 20 -55
37 -57 37 -3 0 -69 38 -148 84 -135 78 -513 296 -587 338 -19 11 -102 59 -185
107 -83 49 -270 157 -416 240 -146 84 -290 168 -320 186 -30 18 -73 43 -95 55
-22 12 -130 74 -240 138 -258 148 -589 339 -629 362 -17 9 -143 82 -281 162
-137 80 -313 181 -390 225 -77 45 -223 129 -325 188 -102 59 -205 119 -230
133 -25 14 -113 65 -197 113 -83 49 -169 98 -190 110 -59 33 -548 315 -638
368 -66 39 -451 261 -512 296 -10 6 -43 24 -73 42 -30 17 -71 40 -90 51 -19
11 -85 49 -147 85 -62 36 -132 77 -155 90 -66 38 -489 282 -528 306 -19 11
-41 24 -49 28 -8 3 -90 51 -183 105 -93 54 -171 98 -174 98 -2 0 -27 15 -56
33 -29 17 -65 39 -79 47 -29 16 -514 296 -539 311 -92 54 -880 508 -939 541
-20 11 -151 87 -291 168 -140 81 -273 158 -295 170 -22 12 -77 44 -123 71 -45
27 -87 49 -92 49 -6 0 -10 5 -10 10 0 6 -4 10 -8 10 -5 0 -102 54 -216 119
-236 136 -373 199 -443 203 -5 0 -19 5 -33 10 -37 14 -265 16 -335 3z"/>
<path d="M1987 7464 c-1 -1 -31 -4 -67 -8 -200 -19 -398 -112 -556 -259 -203
-190 -305 -437 -298 -722 7 -336 182 -628 484 -807 75 -45 131 -77 730 -423
179 -103 426 -246 550 -318 123 -71 245 -141 270 -155 25 -14 97 -55 160 -92
63 -37 131 -77 150 -87 19 -11 152 -88 295 -170 143 -82 352 -203 465 -268
113 -64 210 -121 215 -125 6 -4 30 -18 55 -32 42 -23 240 -137 475 -273 140
-81 214 -124 260 -150 22 -13 182 -105 355 -205 173 -101 340 -197 370 -214
103 -58 281 -161 308 -178 15 -9 43 -25 63 -36 20 -11 213 -123 430 -248 217
-125 423 -244 459 -264 36 -20 238 -137 450 -260 212 -123 401 -232 420 -243
19 -10 76 -43 125 -72 50 -29 110 -63 135 -77 25 -14 101 -58 170 -98 141 -83
482 -279 550 -318 25 -14 62 -36 82 -49 21 -12 40 -23 43 -23 3 0 22 -11 43
-24 30 -19 392 -229 543 -314 19 -10 58 -33 87 -51 29 -17 57 -31 62 -31 6 0
10 -4 10 -10 0 -5 4 -10 9 -10 5 0 49 -23 98 -51 48 -28 104 -60 123 -71 19
-11 64 -37 100 -58 36 -21 81 -47 100 -58 19 -11 222 -128 451 -260 475 -274
472 -273 559 -301 219 -73 460 -67 669 16 302 120 531 396 587 708 1 11 6 34
8 50 8 41 8 200 1 255 -36 266 -188 516 -405 666 -43 29 -179 110 -281 167
-26 15 -228 131 -450 260 -222 128 -482 278 -577 333 -95 54 -187 107 -205
118 -18 10 -138 79 -267 154 -129 74 -451 260 -715 412 -264 153 -496 287
-515 297 -147 83 -520 299 -542 314 -15 11 -29 19 -32 19 -2 0 -96 53 -208
118 -111 65 -223 130 -248 144 -25 14 -101 58 -170 98 -69 40 -152 88 -185
107 -33 18 -67 38 -75 43 -15 9 -210 121 -300 172 -25 14 -197 114 -382 221
-185 107 -340 196 -345 198 -4 2 -40 23 -78 45 -79 47 -431 251 -485 281 -99
56 -450 259 -482 280 -21 12 -40 23 -43 23 -6 0 -171 96 -207 121 -15 11 -29
19 -32 19 -3 0 -55 29 -116 65 -61 36 -130 76 -153 89 -80 44 -113 63 -302
173 -104 61 -264 153 -355 206 -91 52 -181 104 -200 116 -19 11 -42 24 -50 28
-8 4 -46 26 -85 48 -38 23 -90 53 -115 67 -124 70 -506 291 -515 298 -5 4 -30
19 -55 32 -25 14 -136 77 -245 140 -195 113 -231 134 -325 186 -25 14 -62 36
-82 49 -21 13 -110 63 -198 113 -161 90 -263 130 -382 150 -56 9 -185 19 -191
14z"/>
</g>
</svg>
